{"title":"Red.Riding.Hood.2011.R5.x264.Feel-Free","uid":6425929,"size":1385683708,"categoryP":"video","categoryS":"movies","magnet":"?xt=urn:btih:36efc54feea0dfb233dbc0bd37949db2252784a9&amp;dn=Red.Riding.Hood.2011.R5.x264.Feel-Free&amp;tr=udp%3A%2F%2Ftracker.openbittorrent.com%3A80&amp;tr=udp%3A%2F%2Fopen.demonii.com%3A1337&amp;tr=udp%3A%2F%2Ftracker.coppersurfer.tk%3A6969&amp;tr=udp%3A%2F%2Fexodus.desync.com%3A6969","seeders":0,"leechers":1,"uploader":"hiest","files":-1,"time":1306469145,"description":" Full Credits to (Pitic):\n ######## ######## ######## ##          ######## ########  ######## ######\n ##       ##       ##       ##          ##       ##     ## ##       ##       \n ##       ##       ##       ##          ##       ##     ## ##       ##       \n ######   ######   ######   ##          ######   ########  ######   ######   \n ##       ##       ##       ##          ##       ##   ##   ##       ##       \n ##       ##       ##       ##          ##       ##    ##  ##       ##       \n ##       ######## ######## ########    ##       ##     ## ######## ######\n\n\n Genre:Fantasy | Horror | Mystery \n Language:English\n IMDb:\n &lt;a href=&quot; http://www.imdb.com/title/tt1486185/&quot; rel=&quot;nofollow&quot; target=&quot;_NEW&quot;&gt; http://www.imdb.com/title/tt1486185/&lt;/a&gt;\n Source:KiNOPARK/IMAGINE.Thanks!\n Subtitles:Romana\n\n Format : MPEG-4\n Format profile : Base Media\n Codec ID : isom\n File size : 1.29 GiB\n Duration : 1h 39mn\n Overall bit rate : 1 848 Kbps\n\n Video\n ID : 1\n Format : AVC\n Format/Info : Advanced Video Codec\n Format profile : &lt;a class=&quot;__cf_email__&quot; href=&quot;/cdn-cgi/l/email-protection&quot; data-cfemail=&quot;fdb5949a95bdb1c9d3cc&quot;&gt;[email&amp;#160;protected]&lt;/a&gt;&lt;script cf-hash='f9e31' type=&quot;text/javascript&quot;&gt;\n/* &lt;![CDATA[ */!function(){try{var t=&quot;currentScript&quot;in document?document.currentScript:function(){for(var t=document.getElementsByTagName(&quot;script&quot;),e=t.length;e--;)if(t[e].getAttribute(&quot;cf-hash&quot;))return t[e]}();if(t&amp;&amp;t.previousSibling){var e,r,n,i,c=t.previousSibling,a=c.getAttribute(&quot;data-cfemail&quot;);if(a){for(e=&quot;&quot;,r=parseInt(a.substr(0,2),16),n=2;a.length-n;n+=2)i=parseInt(a.substr(n,2),16)^r,e+=String.fromCharCode(i);e=document.createTextNode(e),c.parentNode.replaceChild(e,c)}}}catch(u){}}();/* ]]&gt; */&lt;/script&gt;\n Format settings, CABAC : Yes\n Format settings, ReFrames : 3 frames\n Codec ID : avc1\n Codec ID/Info : Advanced Video Coding\n Duration : 1h 39mn\n Bit rate mode : Variable\n Bit rate : 1 589 Kbps\n Maximum bit rate : 6 433 Kbps\n Width : 720 pixels\n Height : 304 pixels\n Display aspect ratio : 2.35:1\n Frame rate mode : Constant\n Frame rate : 23.976 fps\n Color space : YUV\n Chroma subsampling : 4:2:0\n Bit depth : 8 bits\n Scan type : Progressive\n Bits/(Pixel*Frame) : 0.303\n Stream size : 1.13 GiB (88%)\n Writing library : x264\n\n Audio\n ID : 2\n Format : AAC\n Format/Info : Advanced Audio Codec\n Format version : Version 4\n Format profile : LC\n Format settings, SBR : No\n Codec ID : 40\n Duration : 1h 39mn\n Bit rate mode : Variable\n Bit rate : 224 Kbps\n Maximum bit rate : 278 Kbps\n Channel(s) : 2 channels\n Channel positions : Front: L R\n Sampling rate : 44.1 KHz\n Stream size : 160 MiB (12%)\n\n\n Plot:\n Set in a medieval village that is haunted by a werewolf, a young girl falls \n for  an orphaned woodcutter, much to her family's displeasure.\n\n\n\n\n\n ==================================\n &lt;a href=&quot; http://thepiratebay.se/user/hiest&quot; rel=&quot;nofollow&quot; target=&quot;_NEW&quot;&gt; http://thepiratebay.se/user/hiest&lt;/a&gt;\n ==================================\n\n\n\n\n\n Screen Shots:\n\n &lt;a href=&quot; http://www.pix2links.com/images/54132739074879540337.png&quot; rel=&quot;nofollow&quot; target=&quot;_NEW&quot;&gt; http://www.pix2links.com/images/54132739074879540337.png&lt;/a&gt;\n\n &lt;a href=&quot; http://www.pix2links.com/images/38688349065480042532.png&quot; rel=&quot;nofollow&quot; target=&quot;_NEW&quot;&gt; http://www.pix2links.com/images/38688349065480042532.png&lt;/a&gt;\n\n &lt;a href=&quot; http://www.pix2links.com/images/28184603897569133931.png&quot; rel=&quot;nofollow&quot; target=&quot;_NEW&quot;&gt; http://www.pix2links.com/images/28184603897569133931.png&lt;/a&gt;\n\n &lt;a href=&quot; http://www.pix2links.com/images/99028568954109979379.png&quot; rel=&quot;nofollow&quot; target=&quot;_NEW&quot;&gt; http://www.pix2links.com/images/99028568954109979379.png&lt;/a&gt;\n\n &lt;a href=&quot; http://www.pix2links.com/images/98058428508422862483.png&quot; rel=&quot;nofollow&quot; target=&quot;_NEW&quot;&gt; http://www.pix2links.com/images/98058428508422862483.png&lt;/a&gt;\n\n &lt;a href=&quot; http://www.pix2links.com/images/98058428508422862483.png&quot; rel=&quot;nofollow&quot; target=&quot;_NEW&quot;&gt; http://www.pix2links.com/images/98058428508422862483.png&lt;/a&gt;\n\n\n Full Credits to (Pitic):\n ######## ######## ######## ##          ######## ########  ######## ######\n ##       ##       ##       ##          ##       ##     ## ##       ##       \n ##       ##       ##       ##          ##       ##     ## ##       ##       \n ######   ######   ######   ##          ######   ########  ######   ######   \n ##       ##       ##       ##          ##       ##   ##   ##       ##       \n ##       ##       ##       ##          ##       ##    ##  ##       ##       \n ##       ######## ######## ########    ##       ##     ## ######## ######","torrent":{"xt":"urn:btih:36efc54feea0dfb233dbc0bd37949db2252784a9","amp;dn":"Red.Riding.Hood.2011.R5.x264.Feel-Free","amp;tr":["udp%3A%2F%2Ftracker.openbittorrent.com%3A80","udp%3A%2F%2Fopen.demonii.com%3A1337","udp%3A%2F%2Ftracker.coppersurfer.tk%3A6969","udp%3A%2F%2Fexodus.desync.com%3A6969"],"infoHash":"36efc54feea0dfb233dbc0bd37949db2252784a9","infoHashBuffer":{"type":"Buffer","data":[54,239,197,79,238,160,223,178,51,219,192,189,55,148,157,178,37,39,132,169]},"announce":[],"urlList":[]}}